<svg xmlns="http://www.w3.org/2000/svg" viewBox="0 0 100 100" style="enable-background:new 0 0 100 100" xml:space="preserve"><path d="M50 0C22.4 0 0 22.4 0 50s22.4 50 50 50 50-22.4 50-50S77.6 0 50 0zm31.8 61.2c-.6 2.2-.8 2.9-1.1 3.5l-.2.4c-2.7 6.2-8.7 10.2-21.1 11.5H41.8c-11.6-1.3-18.2-5.3-21.5-11.4l-.2-.4c-.3-.6-.6-1.3-.9-2-.2-.3-.2-.2-.2-.5-1.2-3.3-1.7-7.1-1.7-11.4 0-5.6 2-10.2 5.4-13.8-.5-1.3-2.3-6.6.5-13.6 0 0 4.3-1.4 14.2 5.3 4.1-1.1 8.6-1.7 12.9-1.7 4 0 8 .5 11.7 1.4 6.9-4.6 11-5.2 12.7-5.2.7 0 1 .1 1 .1 2.4 6 1.5 10.6.9 12.7 3.7 3.7 6 8.6 6 14.7.1 4.4-.2 8.2-.8 10.4z"/><path d="M68.1 48.2c-1.8-1.9-4.3-2.4-7.2-2.4-3.1 0-6.6.6-10.3.6-7.3 0-13.7-2.1-17.5 1.9-2.3 2.4-3.6 5.3-3.6 8.5 0 13.1 9.5 15.1 21.2 15.1s21.2-.4 21.2-15.1c-.2-3.2-1.5-6.1-3.8-8.6zm-29 16.6c-2.4 0-4.4-3.3-4.4-7.3 0-4.1 2-7.3 4.4-7.3s4.4 3.3 4.4 7.3-2 7.3-4.4 7.3zm23.6 0c-2.4 0-4.4-3.3-4.4-7.3 0-4.1 2-7.3 4.4-7.3 2.4 0 4.4 3.3 4.4 7.3s-1.9 7.3-4.4 7.3z"/></svg>